<svg width="10" height="8" viewBox="0 0 10 8" fill="none" xmlns="http://www.w3.org/2000/svg">
<path d="M8.46 0.505C8.36 0.21 8.08 0 7.75 0H2.25C1.92 0 1.645 0.21 1.54 0.505L0.5 3.5V7.5C0.5 7.775 0.725 8 1 8H1.5C1.775 8 2 7.775 2 7.5V7H8V7.5C8 7.775 8.225 8 8.5 8H9C9.275 8 9.5 7.775 9.5 7.5V3.5L8.46 0.505ZM2.425 1H7.57L8.09 2.5H1.905L2.425 1ZM8.5 6H1.5V3.5H8.5V6Z" fill="#EB762C"/>
<path d="M2.75 5.5C3.16421 5.5 3.5 5.16421 3.5 4.75C3.5 4.33579 3.16421 4 2.75 4C2.33579 4 2 4.33579 2 4.75C2 5.16421 2.33579 5.5 2.75 5.5Z" fill="#EB762C"/>
<path d="M7.25 5.5C7.66421 5.5 8 5.16421 8 4.75C8 4.33579 7.66421 4 7.25 4C6.83579 4 6.5 4.33579 6.5 4.75C6.5 5.16421 6.83579 5.5 7.25 5.5Z" fill="#EB762C"/>
</svg>
