<svg width="40" height="40" viewBox="0 0 40 40" fill="none" xmlns="http://www.w3.org/2000/svg">
<path d="M0 4C0 1.79086 1.79086 0 4 0H36C38.2091 0 40 1.79086 40 4V36C40 38.2091 38.2091 40 36 40H4C1.79086 40 0 38.2091 0 36V4Z" fill="#F5F5F5"/>
<path d="M28.48 16.0002L29.28 20.0002H10.72L11.52 16.0002H28.48ZM30.6667 9.3335H9.33333V12.0002H30.6667V9.3335ZM30.6667 13.3335H9.33333L8 20.0002V22.6668H9.33333V30.6668H22.6667V22.6668H28V30.6668H30.6667V22.6668H32V20.0002L30.6667 13.3335ZM12 28.0002V22.6668H20V28.0002H12Z" fill="#F79009"/>
</svg>
