<svg width="683" height="673" viewBox="0 0 683 673" fill="none" xmlns="http://www.w3.org/2000/svg">
<g filter="url(#filter0_f_758_4390)">
<rect x="260.5" y="260.5" width="162.5" height="151.667" rx="21.6667" fill="url(#paint0_linear_758_4390)"/>
</g>
<rect x="184.667" y="228" width="162.5" height="151.667" rx="21.6667" fill="url(#paint1_linear_758_4390)"/>
<circle cx="249.666" cy="444.666" r="43.3333" fill="url(#paint2_linear_758_4390)"/>
<circle cx="444.666" cy="444.666" r="43.3333" fill="url(#paint3_linear_758_4390)"/>
<g filter="url(#filter1_di_758_4390)">
<path d="M251.87 297.475L236.63 286.245C234.719 284.837 232.114 284.837 230.203 286.245L214.963 297.475C211.386 300.11 206.333 297.556 206.333 293.114V233.417C206.333 230.425 208.758 228 211.75 228H233.416H255.083C258.075 228 260.5 230.425 260.5 233.417V293.114C260.5 297.556 255.446 300.11 251.87 297.475Z" fill="url(#paint4_linear_758_4390)" shape-rendering="crispEdges"/>
</g>
<g filter="url(#filter2_d_758_4390)">
<path fill-rule="evenodd" clip-rule="evenodd" d="M373.437 238.833C367.604 238.833 362.875 243.441 362.875 249.125V331.458C362.875 337.142 358.146 341.75 352.312 341.75H173.563C167.729 341.75 163 346.357 163 352.041V362.333V424.083V439.129C163 442.187 165.545 444.666 168.684 444.666H195.685H255.44H406.935H466.69H531.875H541.246C545.016 444.666 548.598 442.744 549.994 439.332C551.961 434.526 553 429.346 553 424.083V362.333C552.969 358.594 551.948 354.896 550.045 351.639L492.792 259.416C490.93 256.281 488.65 253.386 486.025 250.853C484.452 249.326 482.755 247.919 480.95 246.632C479.821 245.828 478.65 245.104 477.438 244.421C474.56 242.773 471.507 241.486 468.35 240.562C464.508 239.436 460.506 238.873 456.457 238.833H426.25H405.125H373.437ZM405.125 290.291C405.125 284.607 409.854 280 415.688 280H450.477C454.187 280 457.625 281.896 459.534 284.996L484.885 326.163C489.109 333.023 484.038 341.75 475.828 341.75H415.688C409.854 341.75 405.125 337.142 405.125 331.458V290.291Z" fill="url(#paint5_linear_758_4390)" shape-rendering="crispEdges"/>
<path d="M545.402 354.43C545.391 354.411 545.379 354.392 545.368 354.372L550.045 351.639L492.792 259.416C490.93 256.281 488.65 253.386 486.025 250.853C484.452 249.326 482.755 247.919 480.95 246.632M545.402 354.43L488.19 262.273L488.161 262.228L488.134 262.182C486.515 259.454 484.535 256.942 482.264 254.752L482.258 254.745L482.251 254.739C480.883 253.411 479.399 252.179 477.809 251.045L480.95 246.632M545.402 354.43C546.806 356.857 547.557 359.6 547.583 362.357V424.083C547.583 428.634 546.685 433.117 544.981 437.281C544.605 438.201 543.354 439.25 541.246 439.25H531.875H466.69H406.935H255.44H195.685H168.684C168.563 439.25 168.488 439.207 168.445 439.165C168.428 439.148 168.42 439.135 168.417 439.13C168.417 439.129 168.417 439.129 168.417 439.129V424.083V362.333V352.041C168.417 349.481 170.587 347.166 173.563 347.166H352.312C361.004 347.166 368.292 340.265 368.292 331.458V249.125C368.292 246.564 370.462 244.25 373.437 244.25H405.125H426.25H456.43M545.402 354.43L456.43 244.25M480.95 246.632L477.806 251.043M480.95 246.632C479.821 245.828 478.65 245.104 477.438 244.421C474.56 242.773 471.507 241.486 468.35 240.562C464.508 239.436 460.506 238.873 456.457 238.833L477.806 251.043M477.806 251.043C476.867 250.375 475.865 249.752 474.777 249.139L474.762 249.13L474.746 249.121C472.247 247.69 469.588 246.568 466.828 245.76L468.35 240.564L466.828 245.76C463.5 244.785 460.003 244.287 456.43 244.25M477.806 251.043L456.43 244.25M415.688 274.583C406.996 274.583 399.708 281.484 399.708 290.291V331.458C399.708 340.265 406.996 347.166 415.688 347.166H475.828C488.024 347.166 496.075 334.004 489.497 323.323L464.146 282.156C461.229 277.418 456.024 274.583 450.477 274.583H415.688Z" stroke="url(#paint6_linear_758_4390)" stroke-width="10.8333" shape-rendering="crispEdges"/>
</g>
<path d="M249.908 552.384C248.436 552.384 247.102 552.138 245.908 551.648C244.713 551.157 243.689 550.421 242.836 549.44C242.004 548.458 241.353 547.253 240.884 545.824C240.414 544.394 240.18 542.73 240.18 540.832C240.18 538.954 240.414 537.301 240.884 535.872C241.353 534.421 242.004 533.205 242.836 532.224C243.689 531.242 244.713 530.506 245.908 530.016C247.102 529.525 248.436 529.28 249.908 529.28C251.38 529.28 252.713 529.525 253.908 530.016C255.102 530.506 256.126 531.242 256.98 532.224C257.833 533.205 258.484 534.421 258.932 535.872C259.401 537.301 259.636 538.954 259.636 540.832C259.636 542.73 259.401 544.394 258.932 545.824C258.484 547.253 257.833 548.458 256.98 549.44C256.126 550.421 255.102 551.157 253.908 551.648C252.713 552.138 251.38 552.384 249.908 552.384ZM249.908 548.64C251.508 548.64 252.777 548.106 253.716 547.04C254.676 545.973 255.156 544.48 255.156 542.56V539.104C255.156 537.184 254.676 535.69 253.716 534.624C252.777 533.557 251.508 533.024 249.908 533.024C248.308 533.024 247.028 533.557 246.068 534.624C245.129 535.69 244.66 537.184 244.66 539.104V542.56C244.66 544.48 245.129 545.973 246.068 547.04C247.028 548.106 248.308 548.64 249.908 548.64ZM263.665 552V535.296H267.761V538.752H267.921C268.028 538.304 268.188 537.877 268.401 537.472C268.636 537.045 268.934 536.672 269.297 536.352C269.66 536.032 270.086 535.776 270.577 535.584C271.089 535.392 271.676 535.296 272.337 535.296H273.233V539.168H271.953C270.566 539.168 269.521 539.37 268.817 539.776C268.113 540.181 267.761 540.842 267.761 541.76V552H263.665ZM286.439 549.216H286.279C285.98 550.176 285.415 550.944 284.583 551.52C283.751 552.096 282.78 552.384 281.671 552.384C279.559 552.384 277.938 551.626 276.807 550.112C275.698 548.597 275.143 546.432 275.143 543.616C275.143 540.821 275.698 538.677 276.807 537.184C277.938 535.669 279.559 534.912 281.671 534.912C282.78 534.912 283.751 535.2 284.583 535.776C285.415 536.33 285.98 537.088 286.279 538.048H286.439V528.32H290.535V552H286.439V549.216ZM282.983 548.992C283.964 548.992 284.786 548.757 285.447 548.288C286.108 547.818 286.439 547.146 286.439 546.272V540.96C286.439 540.149 286.108 539.498 285.447 539.008C284.786 538.517 283.964 538.272 282.983 538.272C281.916 538.272 281.052 538.634 280.391 539.36C279.751 540.064 279.431 541.013 279.431 542.208V545.088C279.431 546.282 279.751 547.232 280.391 547.936C281.052 548.64 281.916 548.992 282.983 548.992ZM302.011 552.384C300.773 552.384 299.664 552.181 298.683 551.776C297.723 551.349 296.901 550.762 296.219 550.016C295.557 549.248 295.045 548.33 294.683 547.264C294.32 546.176 294.139 544.96 294.139 543.616C294.139 542.293 294.309 541.098 294.651 540.032C295.013 538.965 295.525 538.058 296.187 537.312C296.848 536.544 297.659 535.957 298.619 535.552C299.579 535.125 300.667 534.912 301.883 534.912C303.184 534.912 304.315 535.136 305.275 535.584C306.235 536.032 307.024 536.64 307.643 537.408C308.261 538.176 308.72 539.072 309.019 540.096C309.339 541.098 309.499 542.176 309.499 543.328V544.672H298.395V545.088C298.395 546.304 298.736 547.285 299.419 548.032C300.101 548.757 301.115 549.12 302.459 549.12C303.483 549.12 304.315 548.906 304.955 548.48C305.616 548.053 306.203 547.509 306.715 546.848L308.923 549.312C308.24 550.272 307.301 551.029 306.107 551.584C304.933 552.117 303.568 552.384 302.011 552.384ZM301.947 537.984C300.859 537.984 299.995 538.346 299.355 539.072C298.715 539.797 298.395 540.736 298.395 541.888V542.144H305.243V541.856C305.243 540.704 304.955 539.776 304.379 539.072C303.824 538.346 303.013 537.984 301.947 537.984ZM313.102 552V535.296H317.198V538.752H317.358C317.465 538.304 317.625 537.877 317.838 537.472C318.073 537.045 318.372 536.672 318.734 536.352C319.097 536.032 319.524 535.776 320.014 535.584C320.526 535.392 321.113 535.296 321.774 535.296H322.67V539.168H321.39C320.004 539.168 318.958 539.37 318.254 539.776C317.55 540.181 317.198 540.842 317.198 541.76V552H313.102ZM335.275 532.864C334.422 532.864 333.803 532.672 333.419 532.288C333.057 531.904 332.875 531.413 332.875 530.816V530.176C332.875 529.578 333.057 529.088 333.419 528.704C333.803 528.32 334.422 528.128 335.275 528.128C336.107 528.128 336.715 528.32 337.099 528.704C337.483 529.088 337.675 529.578 337.675 530.176V530.816C337.675 531.413 337.483 531.904 337.099 532.288C336.715 532.672 336.107 532.864 335.275 532.864ZM333.227 535.296H337.323V552H333.227V535.296ZM342.071 552V535.296H346.167V538.08H346.327C346.668 537.184 347.202 536.437 347.927 535.84C348.674 535.221 349.698 534.912 350.999 534.912C352.727 534.912 354.05 535.477 354.967 536.608C355.884 537.738 356.343 539.349 356.343 541.44V552H352.247V541.856C352.247 540.661 352.034 539.765 351.607 539.168C351.18 538.57 350.476 538.272 349.495 538.272C349.068 538.272 348.652 538.336 348.247 538.464C347.863 538.57 347.511 538.741 347.191 538.976C346.892 539.189 346.647 539.466 346.455 539.808C346.263 540.128 346.167 540.512 346.167 540.96V552H342.071ZM368.446 528.32H372.542V538.08H372.702C373.043 537.184 373.577 536.437 374.302 535.84C375.049 535.221 376.073 534.912 377.374 534.912C379.102 534.912 380.425 535.477 381.342 536.608C382.259 537.738 382.718 539.349 382.718 541.44V552H378.622V541.856C378.622 540.661 378.409 539.765 377.982 539.168C377.555 538.57 376.851 538.272 375.87 538.272C375.443 538.272 375.027 538.336 374.622 538.464C374.238 538.57 373.886 538.741 373.566 538.976C373.267 539.189 373.022 539.466 372.83 539.808C372.638 540.128 372.542 540.512 372.542 540.96V552H368.446V528.32ZM389.307 532.864C388.453 532.864 387.835 532.672 387.451 532.288C387.088 531.904 386.907 531.413 386.907 530.816V530.176C386.907 529.578 387.088 529.088 387.451 528.704C387.835 528.32 388.453 528.128 389.307 528.128C390.139 528.128 390.747 528.32 391.131 528.704C391.515 529.088 391.707 529.578 391.707 530.176V530.816C391.707 531.413 391.515 531.904 391.131 532.288C390.747 532.672 390.139 532.864 389.307 532.864ZM387.259 535.296H391.355V552H387.259V535.296ZM401.574 552.384C399.974 552.384 398.63 552.117 397.542 551.584C396.454 551.029 395.494 550.272 394.662 549.312L397.158 546.88C397.777 547.584 398.449 548.138 399.174 548.544C399.921 548.949 400.774 549.152 401.734 549.152C402.716 549.152 403.42 548.981 403.846 548.64C404.294 548.298 404.518 547.829 404.518 547.232C404.518 546.741 404.358 546.357 404.038 546.08C403.74 545.781 403.217 545.578 402.47 545.472L400.806 545.248C398.993 545.013 397.606 544.501 396.646 543.712C395.708 542.901 395.238 541.728 395.238 540.192C395.238 539.381 395.388 538.656 395.686 538.016C395.985 537.354 396.412 536.8 396.966 536.352C397.521 535.882 398.182 535.53 398.95 535.296C399.74 535.04 400.614 534.912 401.574 534.912C402.385 534.912 403.1 534.976 403.718 535.104C404.358 535.21 404.934 535.381 405.446 535.616C405.958 535.829 406.428 536.106 406.854 536.448C407.281 536.768 407.697 537.13 408.102 537.536L405.702 539.936C405.212 539.424 404.625 538.997 403.942 538.656C403.26 538.314 402.513 538.144 401.702 538.144C400.806 538.144 400.156 538.304 399.75 538.624C399.366 538.944 399.174 539.36 399.174 539.872C399.174 540.426 399.334 540.853 399.654 541.152C399.996 541.429 400.561 541.632 401.35 541.76L403.046 541.984C406.652 542.496 408.454 544.138 408.454 546.912C408.454 547.722 408.284 548.469 407.942 549.152C407.622 549.813 407.164 550.389 406.566 550.88C405.969 551.349 405.244 551.722 404.39 552C403.558 552.256 402.62 552.384 401.574 552.384ZM418.002 535.296H421.938L423.634 542.176L424.946 547.904H425.074L426.61 542.176L428.562 535.296H432.274L434.29 542.176L435.858 547.904H435.986L437.298 542.176L438.962 535.296H442.77L438.194 552H433.778L431.634 544.64L430.386 540.096H430.29L429.074 544.64L426.962 552H422.61L418.002 535.296ZM457.734 552C456.838 552 456.123 551.744 455.59 551.232C455.078 550.698 454.758 549.994 454.63 549.12H454.438C454.161 550.208 453.595 551.029 452.742 551.584C451.889 552.117 450.833 552.384 449.574 552.384C447.867 552.384 446.555 551.936 445.638 551.04C444.721 550.144 444.262 548.949 444.262 547.456C444.262 545.728 444.881 544.448 446.118 543.616C447.355 542.762 449.115 542.336 451.398 542.336H454.246V541.12C454.246 540.181 454.001 539.456 453.51 538.944C453.019 538.432 452.23 538.176 451.142 538.176C450.182 538.176 449.403 538.389 448.806 538.816C448.23 539.221 447.739 539.712 447.334 540.288L444.902 538.112C445.521 537.152 446.342 536.384 447.366 535.808C448.39 535.21 449.745 534.912 451.43 534.912C453.691 534.912 455.409 535.424 456.582 536.448C457.755 537.472 458.342 538.944 458.342 540.864V548.736H460.006V552H457.734ZM450.95 549.408C451.867 549.408 452.646 549.205 453.286 548.8C453.926 548.394 454.246 547.797 454.246 547.008V544.8H451.622C449.489 544.8 448.422 545.482 448.422 546.848V547.392C448.422 548.074 448.635 548.586 449.062 548.928C449.51 549.248 450.139 549.408 450.95 549.408ZM473.311 535.296H477.151L470.431 554.976C470.218 555.573 469.972 556.085 469.695 556.512C469.439 556.96 469.13 557.322 468.767 557.6C468.404 557.877 467.967 558.08 467.455 558.208C466.943 558.336 466.346 558.4 465.663 558.4H463.199V555.136H466.207L466.975 552.8L460.991 535.296H465.055L467.967 544.128L469.055 548.352H469.247L470.399 544.128L473.311 535.296Z" fill="#F79009"/>
<defs>
<filter id="filter0_f_758_4390" x="0.5" y="0.5" width="682.5" height="671.667" filterUnits="userSpaceOnUse" color-interpolation-filters="sRGB">
<feFlood flood-opacity="0" result="BackgroundImageFix"/>
<feBlend mode="normal" in="SourceGraphic" in2="BackgroundImageFix" result="shape"/>
<feGaussianBlur stdDeviation="130" result="effect1_foregroundBlur_758_4390"/>
</filter>
<filter id="filter1_di_758_4390" x="190.083" y="222.583" width="86.6665" height="119.29" filterUnits="userSpaceOnUse" color-interpolation-filters="sRGB">
<feFlood flood-opacity="0" result="BackgroundImageFix"/>
<feColorMatrix in="SourceAlpha" type="matrix" values="0 0 0 0 0 0 0 0 0 0 0 0 0 0 0 0 0 0 127 0" result="hardAlpha"/>
<feOffset dy="10.8333"/>
<feGaussianBlur stdDeviation="8.125"/>
<feComposite in2="hardAlpha" operator="out"/>
<feColorMatrix type="matrix" values="0 0 0 0 0 0 0 0 0 0 0 0 0 0 0 0 0 0 0.25 0"/>
<feBlend mode="normal" in2="BackgroundImageFix" result="effect1_dropShadow_758_4390"/>
<feBlend mode="normal" in="SourceGraphic" in2="effect1_dropShadow_758_4390" result="shape"/>
<feColorMatrix in="SourceAlpha" type="matrix" values="0 0 0 0 0 0 0 0 0 0 0 0 0 0 0 0 0 0 127 0" result="hardAlpha"/>
<feOffset dy="86.6667"/>
<feGaussianBlur stdDeviation="21.6667"/>
<feComposite in2="hardAlpha" operator="arithmetic" k2="-1" k3="1"/>
<feColorMatrix type="matrix" values="0 0 0 0 1 0 0 0 0 1 0 0 0 0 1 0 0 0 0.25 0"/>
<feBlend mode="normal" in2="shape" result="effect2_innerShadow_758_4390"/>
</filter>
<filter id="filter2_d_758_4390" x="119.667" y="238.833" width="476.667" height="292.5" filterUnits="userSpaceOnUse" color-interpolation-filters="sRGB">
<feFlood flood-opacity="0" result="BackgroundImageFix"/>
<feColorMatrix in="SourceAlpha" type="matrix" values="0 0 0 0 0 0 0 0 0 0 0 0 0 0 0 0 0 0 127 0" result="hardAlpha"/>
<feOffset dy="43.3333"/>
<feGaussianBlur stdDeviation="21.6667"/>
<feComposite in2="hardAlpha" operator="out"/>
<feColorMatrix type="matrix" values="0 0 0 0 0 0 0 0 0 0 0 0 0 0 0 0 0 0 0.1 0"/>
<feBlend mode="normal" in2="BackgroundImageFix" result="effect1_dropShadow_758_4390"/>
<feBlend mode="normal" in="SourceGraphic" in2="effect1_dropShadow_758_4390" result="shape"/>
</filter>
<linearGradient id="paint0_linear_758_4390" x1="260.5" y1="260.5" x2="411.806" y2="422.614" gradientUnits="userSpaceOnUse">
<stop stop-color="#F057C5"/>
<stop offset="1" stop-color="#E6F72D"/>
</linearGradient>
<linearGradient id="paint1_linear_758_4390" x1="184.667" y1="228" x2="335.973" y2="390.114" gradientUnits="userSpaceOnUse">
<stop stop-color="#F057C5"/>
<stop offset="1" stop-color="#E6F72D"/>
</linearGradient>
<linearGradient id="paint2_linear_758_4390" x1="206.333" y1="401.333" x2="293" y2="488" gradientUnits="userSpaceOnUse">
<stop stop-color="#F057C5"/>
<stop offset="1" stop-color="#E6F72D"/>
</linearGradient>
<linearGradient id="paint3_linear_758_4390" x1="401.333" y1="401.333" x2="488" y2="488" gradientUnits="userSpaceOnUse">
<stop stop-color="#F057C5"/>
<stop offset="1" stop-color="#E6F72D"/>
</linearGradient>
<linearGradient id="paint4_linear_758_4390" x1="198.208" y1="311.417" x2="279.531" y2="255.855" gradientUnits="userSpaceOnUse">
<stop stop-color="white" stop-opacity="0.2"/>
<stop offset="1" stop-color="white" stop-opacity="0.5"/>
</linearGradient>
<linearGradient id="paint5_linear_758_4390" x1="104.5" y1="465.25" x2="304.948" y2="101.966" gradientUnits="userSpaceOnUse">
<stop stop-color="white" stop-opacity="0.2"/>
<stop offset="1" stop-color="white" stop-opacity="0.5"/>
</linearGradient>
<linearGradient id="paint6_linear_758_4390" x1="514" y1="465.25" x2="374.865" y2="150.364" gradientUnits="userSpaceOnUse">
<stop stop-color="white" stop-opacity="0"/>
<stop offset="1" stop-color="white"/>
</linearGradient>
</defs>
</svg>
