<svg width="20" height="20" viewBox="0 0 20 20" fill="none" xmlns="http://www.w3.org/2000/svg">
<path d="M10.6564 17.9189L2.49805 9.76061V11.4273C2.49805 11.8689 2.67305 12.2939 2.98971 12.6023L9.48138 19.0939C10.1314 19.7439 11.1897 19.7439 11.8397 19.0939L17.0147 13.9189C17.6647 13.2689 17.6647 12.2106 17.0147 11.5606L10.6564 17.9189Z" fill="#12B76A"/>
<path d="M9.48138 14.9273C9.80638 15.2523 10.2314 15.4189 10.6564 15.4189C11.0814 15.4189 11.5064 15.2523 11.8314 14.9273L17.0064 9.75228C17.6564 9.10228 17.6564 8.04394 17.0064 7.39395L10.5147 0.902279C10.2064 0.593945 9.78138 0.418945 9.33971 0.418945H4.16471C3.24805 0.418945 2.49805 1.16895 2.49805 2.08561V7.26061C2.49805 7.70228 2.67305 8.12728 2.98971 8.43561L9.48138 14.9273ZM4.16471 2.08561H9.33971L15.8314 8.57728L10.6564 13.7523L4.16471 7.26061V2.08561Z" fill="#12B76A"/>
<path d="M6.03971 5.00228C6.61501 5.00228 7.08138 4.53591 7.08138 3.96061C7.08138 3.38532 6.61501 2.91895 6.03971 2.91895C5.46442 2.91895 4.99805 3.38532 4.99805 3.96061C4.99805 4.53591 5.46442 5.00228 6.03971 5.00228Z" fill="#12B76A"/>
</svg>
