<svg width="33" height="32" viewBox="0 0 33 32" fill="none" xmlns="http://www.w3.org/2000/svg">
<path d="M0.333496 4C0.333496 1.79086 2.12436 0 4.3335 0H28.3335C30.5426 0 32.3335 1.79086 32.3335 4V28C32.3335 30.2091 30.5426 32 28.3335 32H4.3335C2.12436 32 0.333496 30.2091 0.333496 28V4Z" fill="#F5F5F5"/>
<path d="M7.8335 17.5C7.8335 15.05 9.5935 13.03 11.9135 12.59L10.4235 14.09L11.8335 15.5L15.8335 11.49L11.8335 7.5L10.4235 8.91L12.0035 10.49V10.55C8.5335 10.96 5.8335 13.92 5.8335 17.5C5.8335 21.37 8.9635 24.5 12.8335 24.5H15.8335V22.5H12.8335C10.0735 22.5 7.8335 20.26 7.8335 17.5Z" fill="#F79009"/>
<path d="M17.8335 17.5V24.5H26.8335V17.5H17.8335ZM24.8335 22.5H19.8335V19.5H24.8335V22.5Z" fill="#F79009"/>
<path d="M26.8335 8.5H17.8335V15.5H26.8335V8.5Z" fill="#F79009"/>
</svg>
