<svg width="12" height="12" viewBox="0 0 12 12" fill="none" xmlns="http://www.w3.org/2000/svg">
<path d="M9.46 1.005C9.36 0.71 9.08 0.5 8.75 0.5H3.25C2.92 0.5 2.645 0.71 2.54 1.005L1.5 4V8C1.5 8.275 1.725 8.5 2 8.5H2.5C2.775 8.5 3 8.275 3 8V7.5H9V8C9 8.275 9.225 8.5 9.5 8.5H10C10.275 8.5 10.5 8.275 10.5 8V4L9.46 1.005ZM3.425 1.5H8.57L9.11 3.055H2.885L3.425 1.5ZM9.5 6.5H2.5V4H9.5V6.5Z" fill="#F04438"/>
<path d="M3.75 6C4.16421 6 4.5 5.66421 4.5 5.25C4.5 4.83579 4.16421 4.5 3.75 4.5C3.33579 4.5 3 4.83579 3 5.25C3 5.66421 3.33579 6 3.75 6Z" fill="#F04438"/>
<path d="M8.25 6C8.66421 6 9 5.66421 9 5.25C9 4.83579 8.66421 4.5 8.25 4.5C7.83579 4.5 7.5 4.83579 7.5 5.25C7.5 5.66421 7.83579 6 8.25 6Z" fill="#F04438"/>
<path d="M3.5 10H5.5V9L8.5 10.5H6.5V11.5L3.5 10Z" fill="#F04438"/>
</svg>
