<svg width="33" height="32" viewBox="0 0 33 32" fill="none" xmlns="http://www.w3.org/2000/svg">
<path d="M0.666504 4C0.666504 1.79086 2.45736 0 4.6665 0H28.6665C30.8756 0 32.6665 1.79086 32.6665 4V28C32.6665 30.2091 30.8756 32 28.6665 32H4.6665C2.45736 32 0.666504 30.2091 0.666504 28V4Z" fill="#F5F5F5"/>
<path d="M23.6665 18V10C23.6665 8.9 22.7665 8 21.6665 8H7.6665C6.5665 8 5.6665 8.9 5.6665 10V18C5.6665 19.1 6.5665 20 7.6665 20H21.6665C22.7665 20 23.6665 19.1 23.6665 18ZM21.6665 18H7.6665V10H21.6665V18ZM14.6665 11C13.0065 11 11.6665 12.34 11.6665 14C11.6665 15.66 13.0065 17 14.6665 17C16.3265 17 17.6665 15.66 17.6665 14C17.6665 12.34 16.3265 11 14.6665 11ZM27.6665 11V22C27.6665 23.1 26.7665 24 25.6665 24H8.6665V22H25.6665V11H27.6665Z" fill="#F79009"/>
</svg>
