<svg width="24" height="25" viewBox="0 0 24 25" fill="none" xmlns="http://www.w3.org/2000/svg">
<path d="M19.6602 4.66741C17.0202 2.86741 13.7602 3.70741 12.0002 5.76741C10.2402 3.70741 6.98021 2.85741 4.34021 4.66741C2.94021 5.62741 2.06021 7.24741 2.00021 8.95741C1.86021 12.8374 5.30021 15.9474 10.5502 20.7174L10.6502 20.8074C11.4102 21.4974 12.5802 21.4974 13.3402 20.7974L13.4502 20.6974C18.7002 15.9374 22.1302 12.8274 22.0002 8.94741C21.9402 7.24741 21.0602 5.62741 19.6602 4.66741ZM12.1002 19.2274L12.0002 19.3274L11.9002 19.2274C7.14021 14.9174 4.00021 12.0674 4.00021 9.17741C4.00021 7.17741 5.50021 5.67741 7.50021 5.67741C9.04021 5.67741 10.5402 6.66741 11.0702 8.03741H12.9402C13.4602 6.66741 14.9602 5.67741 16.5002 5.67741C18.5002 5.67741 20.0002 7.17741 20.0002 9.17741C20.0002 12.0674 16.8602 14.9174 12.1002 19.2274Z" fill="#717680"/>
</svg>
