<svg width="32" height="32" viewBox="0 0 32 32" fill="none" xmlns="http://www.w3.org/2000/svg">
<path d="M0 4C0 1.79086 1.79086 0 4 0H28C30.2091 0 32 1.79086 32 4V28C32 30.2091 30.2091 32 28 32H4C1.79086 32 0 30.2091 0 28V4Z" fill="#F5F5F5"/>
<path d="M22.92 9.01C22.72 8.42 22.16 8 21.5 8H10.5C9.84 8 9.29 8.42 9.08 9.01L7 15V23C7 23.55 7.45 24 8 24H9C9.55 24 10 23.55 10 23V22H22V23C22 23.55 22.45 24 23 24H24C24.55 24 25 23.55 25 23V15L22.92 9.01ZM10.85 10H21.14L22.18 13H9.81L10.85 10ZM23 20H9V15H23V20Z" fill="#F79009"/>
<path d="M11.5 19C12.3284 19 13 18.3284 13 17.5C13 16.6716 12.3284 16 11.5 16C10.6716 16 10 16.6716 10 17.5C10 18.3284 10.6716 19 11.5 19Z" fill="#F79009"/>
<path d="M20.5 19C21.3284 19 22 18.3284 22 17.5C22 16.6716 21.3284 16 20.5 16C19.6716 16 19 16.6716 19 17.5C19 18.3284 19.6716 19 20.5 19Z" fill="#F79009"/>
</svg>
