<svg width="33" height="32" viewBox="0 0 33 32" fill="none" xmlns="http://www.w3.org/2000/svg">
<path d="M0.5 4C0.5 1.79086 2.29086 0 4.5 0H28.5C30.7091 0 32.5 1.79086 32.5 4V28C32.5 30.2091 30.7091 32 28.5 32H4.5C2.29086 32 0.5 30.2091 0.5 28V4Z" fill="#F5F5F5"/>
<path d="M19.1898 6.20993L8.82985 15.4899C8.18985 16.0699 8.54985 17.1399 9.40985 17.2199L17.4998 17.9999L12.6498 24.7599C12.4298 25.0699 12.4598 25.4999 12.7298 25.7699C13.0298 26.0699 13.4998 26.0799 13.8098 25.7899L24.1698 16.5099C24.8098 15.9299 24.4498 14.8599 23.5898 14.7799L15.4998 13.9999L20.3498 7.23993C20.5698 6.92993 20.5398 6.49993 20.2698 6.22993C19.9698 5.92993 19.4998 5.91993 19.1898 6.20993Z" fill="#F79009"/>
</svg>
