<svg width="24" height="29" viewBox="0 0 24 29" fill="none" xmlns="http://www.w3.org/2000/svg">
<path d="M4.92695 4.46778L4.67784 3.83317H3.99609H3.05442C3.02887 3.79829 2.99609 3.72725 2.99609 3.62484C2.99609 3.52243 3.02887 3.45139 3.05442 3.4165H4.57925C4.5857 3.42594 4.59347 3.43975 4.60079 3.4591L4.60076 3.45911L4.60373 3.46678L5.27373 5.19469L5.5213 5.83317H6.20609H20.9471C20.9526 5.84123 20.9588 5.85176 20.9654 5.86521C21.0125 5.96219 21.0185 6.09386 20.969 6.20063L20.9664 6.20622L17.3864 14.0483L17.3855 14.0503C17.1715 14.5218 16.8232 14.7082 16.5461 14.7082H9.09609H8.45255L8.18594 15.2939L7.08594 17.7106L7.0135 17.8697C7.03634 17.6999 7.08309 17.5299 7.15667 17.3661L8.50531 14.4207L8.68217 14.0345L8.52695 13.639L4.92695 4.46778ZM7.99609 19.5415C7.76313 19.5415 7.50392 19.4193 7.29809 19.1248H7.99609H18.9378C18.9633 19.1597 18.9961 19.2308 18.9961 19.3332C18.9961 19.4356 18.9633 19.5066 18.9378 19.5415H7.99609ZM7.00609 24.1665C7.00609 23.1972 7.62291 22.7498 7.99609 22.7498C8.37504 22.7498 8.99609 23.2042 8.99609 24.1665C8.99609 25.1288 8.37504 25.5832 7.99609 25.5832C7.62291 25.5832 7.00609 25.1358 7.00609 24.1665ZM17.0061 24.1665C17.0061 23.1972 17.6229 22.7498 17.9961 22.7498C18.375 22.7498 18.9961 23.2042 18.9961 24.1665C18.9961 25.1288 18.375 25.5832 17.9961 25.5832C17.6229 25.5832 17.0061 25.1358 17.0061 24.1665Z" stroke="#717680" stroke-width="2"/>
</svg>
