<svg width="24" height="24" viewBox="0 0 24 24" fill="none" xmlns="http://www.w3.org/2000/svg">
<path d="M21.4082 11.4129L12.5782 2.58293C12.2082 2.21293 11.6982 2.00293 11.1682 2.00293H3.99817C2.89817 2.00293 1.99817 2.90293 1.99817 4.00293V11.1729C1.99817 11.7029 2.20817 12.2129 2.58817 12.5829L11.4182 21.4129C12.1982 22.1929 13.4682 22.1929 14.2482 21.4129L21.4182 14.2429C22.1982 13.4629 22.1982 12.2029 21.4082 11.4129ZM12.8282 20.0029L3.99817 11.1729V4.00293H11.1682L19.9982 12.8329L12.8282 20.0029Z" fill="#535862"/>
<path d="M6.49817 8.00293C7.3266 8.00293 7.99817 7.33136 7.99817 6.50293C7.99817 5.6745 7.3266 5.00293 6.49817 5.00293C5.66974 5.00293 4.99817 5.6745 4.99817 6.50293C4.99817 7.33136 5.66974 8.00293 6.49817 8.00293Z" fill="#535862"/>
</svg>
